<?xml version="1.0" standalone="no"?>
<!DOCTYPE svg PUBLIC "-//W3C//DTD SVG 20010904//EN"
 "http://www.w3.org/TR/2001/REC-SVG-20010904/DTD/svg10.dtd">
<svg version="1.0" xmlns="http://www.w3.org/2000/svg"
 width="500.000000pt" height="500.000000pt" viewBox="0 0 300.000000 194.000000"
 preserveAspectRatio="xMidYMid meet">
<metadata>
Created by potrace 1.10, written by Peter Selinger 2001-2011
</metadata>
<g transform="translate(0.000000,194.000000) scale(0.100000,-0.100000)"
fill="#000000" stroke="none">
<path d="M520 978 l0 -223 250 0 250 0 0 223 0 222 -250 0 -250 0 0 -222z
m154 135 c-6 -54 -23 -107 -66 -206 -17 -40 -27 -76 -23 -87 4 -14 2 -20 -9
-20 -14 0 -16 23 -16 174 0 130 3 176 13 179 6 3 33 6 59 6 l48 1 -6 -47z
m282 39 c15 -9 16 -32 15 -209 -1 -123 -3 -143 -17 -143 -11 0 -14 6 -9 20 6
19 -94 281 -116 305 -24 25 -8 35 54 35 34 0 67 -4 73 -8z m-168 -34 c5 -7 31
-65 57 -128 27 -63 54 -122 62 -131 26 -31 15 -39 -52 -39 -65 0 -81 10 -55
36 6 6 8 18 4 27 -5 13 -19 17 -60 17 -60 0 -77 -16 -56 -51 17 -27 16 -29
-26 -29 -46 0 -57 8 -38 29 7 9 32 67 56 129 33 85 40 116 32 124 -7 7 -12 16
-12 20 0 13 77 9 88 -4z m-40 -316 c-27 -5 -32 2 -18 29 l13 22 13 -24 c11
-22 11 -24 -8 -27z"/>
<path d="M722 992 l-21 -62 44 0 43 0 -18 48 c-9 26 -19 54 -22 62 -2 8 -14
-13 -26 -48z"/>
<path d="M1136 1068 c-31 -44 -16 -70 59 -104 42 -20 55 -45 35 -69 -18 -21
-57 -18 -80 5 -22 22 -43 19 -33 -6 7 -18 55 -44 81 -44 11 0 31 10 46 21 21
16 26 28 24 53 -3 26 -11 35 -56 60 -58 31 -71 48 -52 71 17 20 46 19 68 -3
28 -28 48 -15 21 14 -30 32 -91 33 -113 2z"/>
<path d="M1400 975 c0 -96 3 -115 15 -115 12 0 15 19 15 115 0 96 -3 115 -15
115 -12 0 -15 -19 -15 -115z"/>
<path d="M1563 1078 c2 -7 19 -59 38 -115 18 -57 38 -103 44 -103 6 0 24 38
40 85 16 46 32 81 36 77 3 -4 18 -42 34 -85 15 -43 32 -76 38 -74 5 1 26 53
46 115 32 97 34 112 20 112 -12 0 -23 -22 -40 -85 -13 -47 -27 -85 -31 -85 -5
0 -8 6 -8 13 0 29 -54 157 -66 157 -8 0 -14 -5 -14 -11 0 -6 -12 -45 -27 -87
l-27 -75 -29 86 c-19 59 -34 87 -44 87 -8 0 -13 -6 -10 -12z"/>
<path d="M1900 975 l0 -115 70 0 c56 0 70 3 70 15 0 12 -10 14 -55 9 l-55 -7
0 42 0 41 45 0 c33 0 45 4 45 15 0 11 -12 15 -45 15 -45 0 -45 0 -45 35 l0 35
55 0 c42 0 55 3 55 15 0 12 -14 15 -70 15 l-70 0 0 -115z"/>
<path d="M2151 1068 c-5 -13 -27 -63 -50 -112 -22 -49 -41 -90 -41 -92 0 -2 7
-4 15 -4 9 0 20 11 25 25 9 23 14 25 73 25 58 0 65 -2 75 -25 6 -14 18 -25 26
-25 10 0 0 33 -37 115 -51 115 -70 135 -86 93z m65 -125 c-2 -2 -24 -3 -48 -1
l-44 3 24 54 25 55 24 -54 c13 -29 21 -55 19 -57z"/>
<path d="M2312 975 c1 -99 3 -115 17 -115 13 0 16 8 13 40 -4 39 -3 40 27 40
25 0 36 -8 57 -40 15 -22 33 -40 40 -40 19 0 18 7 -12 46 l-27 35 22 22 c28
31 28 80 -1 107 -17 15 -35 20 -80 20 l-57 0 1 -115z m127 63 c15 -42 -1 -63
-53 -66 l-46 -3 0 45 0 46 45 0 c38 0 47 -4 54 -22z"/>
</g>
</svg>
